<svg width="7" height="11" viewBox="0 0 7 11" fill="none" xmlns="http://www.w3.org/2000/svg">
<path d="M0.909278 9.28102L4.38148 5.80881L0.909278 2.33661C0.826427 2.25376 0.760706 2.1554 0.715867 2.04715C0.671028 1.9389 0.647949 1.82288 0.647949 1.70571C0.647949 1.58854 0.671028 1.47252 0.715867 1.36427C0.760706 1.25602 0.826427 1.15766 0.909278 1.07481C0.992129 0.991954 1.09049 0.926233 1.19874 0.881394C1.30699 0.836555 1.42301 0.813477 1.54018 0.813477C1.65735 0.813477 1.77337 0.836555 1.88162 0.881394C1.98987 0.926233 2.08823 0.991954 2.17108 1.07481L6.27866 5.18238C6.62767 5.53139 6.62767 6.09518 6.27866 6.44419L2.17108 10.5518C2.08829 10.6347 1.98995 10.7005 1.8817 10.7455C1.77344 10.7904 1.65738 10.8135 1.54018 10.8135C1.42298 10.8135 1.30692 10.7904 1.19867 10.7455C1.09041 10.7005 0.992068 10.6347 0.909278 10.5518C0.569217 10.2028 0.560268 9.63003 0.909278 9.28102Z" fill="black"/>
</svg>
