<svg width="14" height="15" viewBox="0 0 14 15" fill="none" xmlns="http://www.w3.org/2000/svg">
                                    <path fill-rule="evenodd" clip-rule="evenodd" d="M6.23011 0.72277C6.37875 0.722544 6.53865 0.722614 6.71121 0.722689L6.99563 0.72277C9.27405 0.72277 9.5441 0.730692 10.4438 0.770304C11.2759 0.80716 11.7274 0.941839 12.0282 1.05499C12.4264 1.20482 12.7104 1.38394 13.0088 1.67327C13.3075 1.96261 13.4924 2.23817 13.6474 2.62395C13.7642 2.91501 13.9034 3.35246 13.9413 4.15847C13.9822 5.02992 13.9911 5.2917 13.9911 7.49789C13.9911 9.70408 13.9822 9.96586 13.9413 10.8373C13.9033 11.6433 13.7642 12.0808 13.6474 12.3718C13.4928 12.7576 13.3075 13.0323 13.0088 13.3215C12.7102 13.6108 12.4266 13.7899 12.0282 13.9398C11.7278 14.0534 11.2759 14.1878 10.4438 14.2246C9.54428 14.2642 9.27405 14.2728 6.99563 14.2728C4.71703 14.2728 4.44698 14.2642 3.54741 14.2246C2.71541 14.1874 2.26385 14.0527 1.96286 13.9396C1.56464 13.7897 1.28019 13.6106 0.981521 13.3213C0.682852 13.032 0.497961 12.7571 0.342937 12.3711C0.226136 12.0801 0.0869342 11.6426 0.0490672 10.8366C0.00817787 9.96517 0 9.70339 0 7.49582C0 5.28825 0.00817787 5.02785 0.0490672 4.1564C0.087112 3.35039 0.226136 2.91294 0.342937 2.62154C0.497605 2.23576 0.682852 1.9602 0.981521 1.67086C1.28019 1.38153 1.56464 1.20241 1.96286 1.05223C2.26367 0.938566 2.71541 0.804232 3.54741 0.767204C4.33462 0.732759 4.63969 0.722425 6.23011 0.720703V0.72277ZM11.5514 2.09556C10.986 2.09556 10.5273 2.53938 10.5273 3.08722C10.5273 3.6349 10.986 4.07923 11.5514 4.07923C12.1167 4.07923 12.5754 3.6349 12.5754 3.08722C12.5754 2.53955 12.1167 2.09521 11.5514 2.09521V2.09556ZM2.61312 7.49983C2.61312 5.1554 4.57518 3.25461 6.99521 3.25451C9.41533 3.25451 11.3769 5.15535 11.3769 7.49983C11.3769 9.84431 9.41551 11.7443 6.99539 11.7443C4.57528 11.7443 2.61312 9.84431 2.61312 7.49983Z" fill="#FFFFFF"></path>
                                    <path d="M7.00072 4.74414C8.57158 4.74414 9.8452 5.97778 9.8452 7.49972C9.8452 9.02149 8.57158 10.2553 7.00072 10.2553C5.42969 10.2553 4.15625 9.02149 4.15625 7.49972C4.15625 5.97778 5.42969 4.74414 7.00072 4.74414Z" fill="#FFFFFF"></path>
                                </svg>