<svg width="18" height="17" viewBox="0 0 18 17" fill="none" xmlns="http://www.w3.org/2000/svg">
                                    <path fill-rule="evenodd" clip-rule="evenodd" d="M4.54793 2.57299C4.52439 1.53818 3.76052 0.75 2.5201 0.75C1.27969 0.75 0.46875 1.53818 0.46875 2.57299C0.46875 3.58637 1.25572 4.39725 2.47304 4.39725H2.49621C3.76052 4.39725 4.54793 3.58637 4.54793 2.57299ZM4.30954 5.83789H0.683594V16.3919H4.30954V5.83789ZM13.2109 5.59012C15.597 5.59012 17.3858 7.09888 17.3858 10.3406L17.3856 16.392H13.7598V10.7456C13.7598 9.32731 13.2351 8.35953 11.9225 8.35953C10.9208 8.35953 10.3241 9.01195 10.062 9.6421C9.96617 9.86793 9.94264 10.1826 9.94264 10.498V16.3923H6.31625C6.31625 16.3923 6.36404 6.82856 6.31625 5.83823H9.94264V7.33312C10.4239 6.6145 11.2858 5.59012 13.2109 5.59012Z" fill="#FFFFFF"></path>
                                </svg>