<svg width="40" height="40" viewBox="0 0 40 40" fill="none" xmlns="http://www.w3.org/2000/svg">
<path d="M40 39.5C40 39.6326 39.9473 39.7598 39.8536 39.8535C39.7598 39.9473 39.6326 40 39.5 40H0.5C0.367392 40 0.240214 39.9473 0.146446 39.8535C0.052678 39.7598 0 39.6326 0 39.5V0.5C0 0.367392 0.052678 0.240222 0.146446 0.146454C0.240214 0.0526857 0.367392 0 0.5 0C0.632608 0 0.759786 0.0526857 0.853554 0.146454C0.947322 0.240222 1 0.367392 1 0.5V39H39.5C39.6326 39 39.7598 39.0527 39.8536 39.1465C39.9473 39.2402 40 39.3674 40 39.5Z" fill="#476DCE"/>
<path d="M11.0425 12.7452C11.0425 12.0424 10.4733 11.4727 9.77125 11.4727C9.06916 11.4727 8.5 12.0424 8.5 12.7452V20.5827C8.5 21.2854 9.06916 21.8552 9.77125 21.8552C10.4733 21.8552 11.0425 21.2854 11.0425 20.5827V12.7452Z" fill="#476DCE"/>
<path d="M18.1494 8.93022C18.1494 8.22743 17.5803 7.65771 16.8782 7.65771C16.1761 7.65771 15.6069 8.22743 15.6069 8.93022V16.7677C15.6069 17.4705 16.1761 18.0402 16.8782 18.0402C17.5803 18.0402 18.1494 17.4705 18.1494 16.7677V8.93022Z" fill="#476DCE"/>
<path d="M17.305 3.20771C17.305 2.97299 17.1153 2.78271 16.8813 2.78271C16.6472 2.78271 16.4575 2.97299 16.4575 3.20771V6.17271C16.4575 6.40744 16.6472 6.59771 16.8813 6.59771C17.1153 6.59771 17.305 6.40744 17.305 6.17271V3.20771Z" fill="#476DCE"/>
<path d="M17.305 19.5251C17.305 19.2904 17.1153 19.1001 16.8813 19.1001C16.6472 19.1001 16.4575 19.2904 16.4575 19.5251V30.5426C16.4575 30.7773 16.6472 30.9676 16.8813 30.9676C17.1153 30.9676 17.305 30.7773 17.305 30.5426V19.5251Z" fill="#476DCE"/>
<path d="M23.7143 24.8198C23.7143 25.5226 24.2835 26.0923 24.9856 26.0923C25.6877 26.0923 26.2568 25.5226 26.2568 24.8198V16.9823C26.2568 16.2795 25.6877 15.7098 24.9856 15.7098C24.2835 15.7098 23.7143 16.2795 23.7143 16.9823V24.8198Z" fill="#476DCE"/>
<path d="M24.5587 30.5428C24.5587 30.7775 24.7485 30.9678 24.9825 30.9678C25.2165 30.9678 25.4062 30.7775 25.4062 30.5428V27.5778C25.4062 27.3431 25.2165 27.1528 24.9825 27.1528C24.7485 27.1528 24.5587 27.3431 24.5587 27.5778V30.5428Z" fill="#476DCE"/>
<path d="M24.5587 14.2249C24.5587 14.4596 24.7485 14.6499 24.9825 14.6499C25.2165 14.6499 25.4062 14.4596 25.4062 14.2249V3.2074C25.4062 2.97268 25.2165 2.78241 24.9825 2.78241C24.7485 2.78241 24.5587 2.97268 24.5587 3.2074V14.2249Z" fill="#476DCE"/>
<path d="M31.7075 22.2773C31.7075 22.9801 32.2767 23.5498 32.9787 23.5498C33.6808 23.5498 34.25 22.9801 34.25 22.2773V14.4398C34.25 13.737 33.6808 13.1673 32.9787 13.1673C32.2767 13.1673 31.7075 13.737 31.7075 14.4398V22.2773Z" fill="#476DCE"/>
<path d="M32.5519 30.5398C32.5519 30.7746 32.7416 30.9648 32.9757 30.9648C33.2097 30.9648 33.3994 30.7746 33.3994 30.5398V25.0323C33.3994 24.7976 33.2097 24.6073 32.9757 24.6073C32.7416 24.6073 32.5519 24.7976 32.5519 25.0323V30.5398Z" fill="#476DCE"/>
<path d="M32.5519 11.6824C32.5519 11.9171 32.7416 12.1074 32.9757 12.1074C33.2097 12.1074 33.3994 11.9171 33.3994 11.6824V3.20743C33.3994 2.97271 33.2097 2.78242 32.9757 2.78242C32.7416 2.78242 32.5519 2.97271 32.5519 3.20743V11.6824Z" fill="#476DCE"/>
</svg>
