<svg width="49" height="40" viewBox="0 0 49 40" fill="none" xmlns="http://www.w3.org/2000/svg">
<path d="M41.9002 21.4399C41.8801 21.6979 41.8171 21.8148 41.5363 21.7998C40.9834 21.7717 40.4277 21.7798 39.8736 21.7998C39.6361 21.8073 39.5768 21.7373 39.6023 21.4874C39.8762 18.9919 39.5638 16.4638 38.6926 14.125C37.3447 10.4757 35.0159 7.67067 31.8991 5.58045C29.0815 3.68832 25.9873 2.66227 22.6549 2.44606C18.0566 2.14737 13.8146 3.28527 10.025 6.07035C6.65351 8.55112 4.31576 11.8461 3.34551 16.0947C2.30935 20.6331 3.12284 24.8542 5.56628 28.7259C5.8709 29.209 5.95937 29.6176 5.82458 30.1813C5.4214 31.8685 5.07878 33.5663 4.71241 35.2603C4.618 35.6977 4.618 35.7015 5.04315 35.5727C6.78494 35.0508 8.52395 34.5267 10.2602 34.0005C10.3467 33.9677 10.4392 33.9569 10.5305 33.9688C10.6217 33.9808 10.7089 34.0152 10.7851 34.0693C14.5568 36.5232 18.6682 37.4955 23.0706 37.1199C25.8317 36.8895 28.5135 36.0371 30.9341 34.6204C31.2346 34.4455 31.2346 34.4455 31.2352 34.8004C31.2352 35.4984 31.2275 36.1964 31.2399 36.8937C31.2435 37.0924 31.1764 37.183 31.0119 37.2687C28.0263 38.7883 24.753 39.5786 21.4365 39.5807C17.5276 39.6007 13.855 38.639 10.4419 36.6219C10.2513 36.5094 10.0927 36.5301 9.91045 36.585C7.23998 37.3907 4.56971 38.1954 1.89963 38.9989C1.56593 39.0996 1.56652 39.1002 1.64609 38.7284C2.26244 35.8689 2.87998 33.0093 3.49871 30.1494C3.52025 30.0609 3.52307 29.9684 3.50696 29.8786C3.49085 29.7887 3.45621 29.7037 3.40548 29.6295C1.59502 26.6051 0.634863 23.3114 0.652083 19.7296C0.672866 15.441 1.9982 11.6155 4.52953 8.2743C7.73242 4.04762 11.9341 1.53249 16.9397 0.453947C18.3968 0.144514 19.88 -0.0074963 21.3664 0.000284167C26.853 0.0871423 31.7393 1.87992 35.8507 5.76666C39.0803 8.81919 41.1052 12.5991 41.7779 17.1395C41.9799 18.5628 42.021 20.0063 41.9002 21.4399Z" fill="#B880FF"/>
<path d="M47.8627 32.7626C45.9032 32.7501 43.9437 32.7626 41.9842 32.7482C41.7164 32.7482 41.6588 32.8226 41.6629 33.0925C41.6789 34.123 41.6694 35.1546 41.6694 36.1844C41.6694 37.2255 41.6635 38.2665 41.6742 39.3088C41.6742 39.5282 41.6178 39.5913 41.4106 39.5857C40.8565 39.5713 40.302 39.5675 39.7479 39.5857C39.5193 39.5938 39.4748 39.52 39.4754 39.292C39.4843 37.2205 39.4754 35.1484 39.4867 33.0769C39.4867 32.8201 39.4273 32.7482 39.1803 32.7495C37.2119 32.7607 35.2429 32.7495 33.2745 32.7614C33.0417 32.7614 32.971 32.6989 32.9776 32.4527C32.9948 31.8809 32.9942 31.3073 32.9776 30.7355C32.9704 30.4987 33.0369 30.4424 33.2578 30.4437C35.2268 30.4531 37.1952 30.4437 39.1637 30.4562C39.4291 30.4562 39.4879 30.3868 39.4861 30.1137C39.4742 28.0516 39.4861 25.9895 39.4748 23.9275C39.4748 23.6937 39.5158 23.605 39.7598 23.615C40.3031 23.6363 40.8482 23.6331 41.3916 23.615C41.613 23.6081 41.6742 23.67 41.673 23.9081C41.6635 25.9796 41.673 28.051 41.6623 30.1231C41.6623 30.3731 41.7098 30.4543 41.9652 30.4531C43.9336 30.4406 45.9026 30.4531 47.871 30.4399C48.1037 30.4399 48.1679 30.5024 48.1619 30.7461C48.1433 31.3081 48.1433 31.8705 48.1619 32.4333C48.1744 32.6932 48.115 32.7657 47.8627 32.7626Z" fill="#B880FF"/>
<path d="M32.1582 19.8444C32.161 20.3023 32.0345 20.7508 31.7948 21.133C31.5551 21.5152 31.213 21.8138 30.8118 21.9911C30.4106 22.1684 29.9684 22.2164 29.5413 22.1288C29.1142 22.0413 28.7214 21.8223 28.4127 21.4996C28.104 21.1768 27.8934 20.7649 27.8074 20.316C27.7215 19.8671 27.7642 19.4015 27.93 18.9781C28.0959 18.5548 28.3775 18.1928 28.7391 17.9381C29.1007 17.6834 29.526 17.5474 29.9611 17.5474C30.5411 17.5483 31.0972 17.7902 31.5086 18.2203C31.92 18.6505 32.1535 19.2341 32.1582 19.8444Z" fill="#B880FF"/>
<path d="M16.8689 19.8278C16.8751 20.2859 16.7519 20.7355 16.5149 21.1198C16.2779 21.504 15.9378 21.8055 15.5377 21.986C15.1376 22.1664 14.6955 22.2178 14.2677 22.1334C13.8398 22.0491 13.4454 21.8329 13.1345 21.5123C12.8236 21.1917 12.6101 20.7811 12.5213 20.3327C12.4325 19.8842 12.4723 19.4181 12.6356 18.9935C12.7989 18.5688 13.0784 18.2048 13.4386 17.9476C13.7988 17.6904 14.2235 17.5517 14.6588 17.5489C15.2386 17.5444 15.7965 17.7815 16.2106 18.2086C16.6247 18.6356 16.8614 19.2177 16.8689 19.8278Z" fill="#B880FF"/>
<path d="M24.5249 19.8738C24.5222 20.3304 24.391 20.776 24.148 21.1544C23.9049 21.5327 23.5609 21.8268 23.1592 21.9996C22.7575 22.1724 22.3162 22.2161 21.8909 22.1253C21.4656 22.0344 21.0754 21.8131 20.7695 21.4892C20.4637 21.1653 20.2558 20.7533 20.1721 20.3052C20.0884 19.8571 20.1327 19.393 20.2994 18.9713C20.4661 18.5497 20.7477 18.1895 21.1087 17.936C21.4697 17.6826 21.8939 17.5474 22.3278 17.5474C22.6175 17.5474 22.9043 17.6076 23.1718 17.7247C23.4392 17.8418 23.682 18.0134 23.8862 18.2296C24.0904 18.4458 24.252 18.7024 24.3616 18.9846C24.4712 19.2668 24.5267 19.569 24.5249 19.8738Z" fill="#B880FF"/>
</svg>
