<svg width="52" height="42" viewBox="0 0 52 42" fill="none" xmlns="http://www.w3.org/2000/svg">
<path d="M47.8254 32.6499C46.8699 32.6633 46.7518 32.3037 46.7518 31.4877C46.7876 27.5047 46.7876 23.5234 46.7518 19.544C46.7518 18.8622 46.8726 18.5938 47.6295 18.4221C50.0827 17.8665 51.0516 16.4493 50.9979 14.4363C50.912 11.2639 50.9845 8.086 50.9711 4.90815C50.9711 2.65091 49.6452 1.08882 47.3933 1.05662C41.8464 0.976096 36.2994 0.981463 30.7525 1.07272C28.6053 1.10761 27.2821 2.59723 27.309 4.72832C27.309 5.80192 26.9493 5.95223 25.9992 5.94417C20.0944 5.90123 14.1896 5.91196 8.28482 5.92538C5.85581 5.92538 4.77952 7.02314 4.77952 9.43337C4.77952 16.7258 4.75805 24.0155 4.80099 31.3079C4.80099 32.3198 4.61043 32.7787 3.49925 32.6499C2.58133 32.5372 1.46211 32.6499 1.27959 33.6832C0.957515 35.5084 0.678381 37.4408 1.85934 39.121C2.90878 40.616 4.46818 40.9998 6.21814 40.9998C9.24211 40.9998 12.2688 40.9998 15.2981 40.9998H25.6744C29.2531 40.9998 32.8317 40.9998 36.4104 40.9998C39.4057 40.9998 42.4029 40.9998 45.4018 40.9998C46.7921 40.9998 48.0536 40.7126 49.1218 39.7679C50.4933 38.552 50.4638 36.947 50.445 35.3151C50.4155 33.023 50.0961 32.615 47.8254 32.6499ZM28.2457 4.9001C28.2457 3.20381 29.2549 2.04701 30.9297 2.03091C36.3835 1.97544 41.841 1.97544 47.302 2.03091C49.0037 2.05238 49.9377 3.2065 49.9431 4.92694C49.9538 8.14773 49.9538 11.3685 49.9431 14.5893C49.9431 16.4278 48.9178 17.4773 47.0498 17.5041C44.814 17.539 42.5782 17.5417 40.3398 17.5041C39.9884 17.4824 39.6364 17.5345 39.3063 17.657C38.9763 17.7795 38.6755 17.9697 38.4234 18.2154C36.8935 19.6272 35.3073 20.9799 33.5385 22.5339C33.5385 21.0121 33.5036 19.8043 33.5385 18.5992C33.568 17.794 33.3077 17.4317 32.4649 17.5095C31.9291 17.5553 31.3903 17.5553 30.8545 17.5095C29.2441 17.3807 28.2323 16.3286 28.2215 14.7047C28.2144 11.4213 28.2224 8.1531 28.2457 4.9001ZM5.70013 31.3025C5.78065 27.6818 5.72965 24.0558 5.72965 20.4377C5.72965 16.8197 5.72965 13.191 5.72965 9.57293C5.72965 7.62435 6.3604 6.92114 8.25261 6.91309C14.2889 6.88894 20.3306 6.9131 26.3615 6.88357C27.2177 6.88357 27.2875 7.24591 27.2768 7.92764C27.2472 10.0748 27.2607 12.222 27.2768 14.3692C27.2768 17.021 28.6187 18.4918 31.2652 18.4892C32.3737 18.4892 32.6072 18.8488 32.5401 19.8312C32.4622 20.945 32.5213 22.0669 32.5213 23.1835C32.5213 23.4948 32.4783 23.833 32.8058 24.0209C33.2272 24.2597 33.466 23.9108 33.7237 23.6854C35.4066 22.2145 37.1055 20.7625 38.7481 19.246C39.0146 18.9824 39.3347 18.7793 39.6867 18.6506C40.0387 18.5218 40.4143 18.4704 40.788 18.4999C42.1702 18.5589 43.5606 18.5428 44.9455 18.4999C45.5735 18.4811 45.8097 18.6663 45.8044 19.3239C45.7829 23.4814 45.7695 27.6443 45.8044 31.7964C45.8044 32.7385 45.2676 32.6284 44.6798 32.6284C40.5679 32.6284 36.4533 32.6499 32.3334 32.6096C31.3296 32.6096 30.6801 32.7224 30.825 33.9516C30.9243 34.7891 30.3526 35.1836 29.5823 35.1916C27.0343 35.2167 24.4863 35.2167 21.9383 35.1916C21.0848 35.1916 20.5748 34.7166 20.6768 33.8282C20.8057 32.7304 20.234 32.5909 19.3348 32.5989C15.2686 32.6311 11.1969 32.5748 7.1307 32.6392C6.05978 32.6687 5.68671 32.4513 5.71355 31.2891L5.70013 31.3025ZM44.8489 40.0336H6.51338C2.88731 40.0336 1.20981 37.8085 2.13042 34.271C2.28341 33.6806 2.686 33.651 3.14765 33.651C8.4217 33.651 13.6957 33.651 18.9698 33.651C19.4744 33.651 19.6408 33.7852 19.7079 34.3032C19.885 35.7123 20.8459 36.2384 22.1611 36.2438C24.5749 36.2545 26.9905 36.2545 29.4078 36.2438C30.7498 36.2438 31.6678 35.6774 31.853 34.2845C31.9227 33.7477 32.1214 33.651 32.6072 33.651C37.8803 33.6654 43.1588 33.6654 48.4427 33.651C48.9151 33.651 49.2936 33.7101 49.4331 34.3006C50.2813 37.9132 48.6199 40.0175 44.8623 40.0201L44.8489 40.0336Z" fill="#7FBA7A" stroke="#7FBA7A" stroke-miterlimit="10"/>
<path d="M23.3554 22.9072C22.833 22.836 22.307 22.7948 21.7799 22.7837C23.9701 19.6676 23.9271 17.0078 21.6779 15.1236C20.749 14.3344 19.5595 13.9195 18.3413 13.9597C17.1231 13.9999 15.9636 14.4923 15.0887 15.341C13.0704 17.2842 13.1187 20.0756 15.3974 22.8562C13.5186 22.6764 12.131 23.2346 11.1218 24.6061C10.3166 25.6958 10.3756 26.96 10.4052 28.2107C10.4052 28.6214 10.2227 29.2602 10.848 29.2843C11.5163 29.3219 11.3231 28.6751 11.358 28.2644C11.3795 27.996 11.358 27.7276 11.358 27.4592C11.3956 25.0436 12.5953 23.8144 14.9841 23.7956C17.3728 23.7768 19.724 23.7741 22.094 23.7956C24.3941 23.817 25.5832 25.049 25.6422 27.3894C25.6422 27.8806 25.6422 28.3718 25.6771 28.863C25.6763 28.9757 25.7197 29.0843 25.7979 29.1656C25.8762 29.2468 25.9831 29.2943 26.0958 29.2978C26.3642 29.3246 26.485 29.1743 26.5789 28.9462C27.5317 26.6916 25.771 23.3715 23.3554 22.9072ZM18.5403 22.824C17.5009 22.8159 16.5052 22.404 15.7639 21.6752C15.0226 20.9464 14.5938 19.958 14.568 18.9187C14.5617 18.1402 14.7863 17.3772 15.2136 16.7262C15.6408 16.0753 16.2514 15.5656 16.9683 15.2617C17.6851 14.9577 18.476 14.8731 19.2409 15.0186C20.0058 15.1641 20.7105 15.5331 21.2657 16.0789C21.8209 16.6248 22.2019 17.323 22.3603 18.0853C22.5188 18.8476 22.4477 19.6398 22.156 20.3618C21.8643 21.0837 21.3651 21.7029 20.7216 22.1412C20.078 22.5794 19.3189 22.817 18.5403 22.824Z" fill="#7FBA7A" stroke="#7FBA7A" stroke-miterlimit="10"/>
<path d="M45.1429 9.84646C45.0597 10.4611 44.7269 10.7939 44.1686 10.7456C43.952 10.7159 43.754 10.607 43.6127 10.44C43.4715 10.273 43.3971 10.0597 43.4037 9.84111C43.4104 9.62251 43.4977 9.4141 43.6488 9.25602C43.8 9.09794 44.0042 9.00137 44.2223 8.9849C44.3401 8.97798 44.458 8.99508 44.5689 9.03516C44.6798 9.07525 44.7814 9.13748 44.8676 9.21808C44.9537 9.29867 45.0225 9.39594 45.0698 9.50396C45.1172 9.61199 45.142 9.72852 45.1429 9.84646Z" fill="#7FBA7A" stroke="#7FBA7A" stroke-miterlimit="10"/>
<path d="M39.9967 9.9462C39.993 10.0575 39.967 10.1669 39.9203 10.268C39.8736 10.3691 39.8072 10.4599 39.7249 10.5349C39.6426 10.6099 39.5461 10.6677 39.4412 10.7049C39.3362 10.7421 39.2248 10.7579 39.1137 10.7514C39.0018 10.7562 38.8901 10.738 38.7855 10.698C38.6808 10.6581 38.5855 10.5971 38.5053 10.5189C38.4251 10.4407 38.3618 10.347 38.3192 10.2434C38.2765 10.1398 38.2555 10.0287 38.2575 9.91668C38.2333 9.35036 38.5983 9.05243 39.1351 8.95312C39.6531 9.08464 40.0343 9.35572 39.9967 9.9462Z" fill="#7FBA7A" stroke="#7FBA7A" stroke-miterlimit="10"/>
<path d="M34.8698 9.8708C34.7812 10.4076 34.4753 10.7807 33.9063 10.7485C33.7939 10.7475 33.6828 10.7239 33.5797 10.6789C33.4767 10.634 33.3838 10.5687 33.3066 10.487C33.2294 10.4053 33.1695 10.3089 33.1305 10.2034C33.0915 10.098 33.0742 9.98577 33.0796 9.87349C33.0737 9.7499 33.0948 9.6265 33.1413 9.51186C33.1879 9.39722 33.2588 9.29408 33.3492 9.20957C33.4396 9.12506 33.5473 9.06121 33.6648 9.02245C33.7823 8.98369 33.9068 8.97094 34.0297 8.98509C34.5209 9.01193 34.8 9.36621 34.8698 9.8708Z" fill="#7FBA7A" stroke="#7FBA7A" stroke-miterlimit="10"/>
</svg>
