<svg width="18" height="19" viewBox="0 0 18 19" fill="none" xmlns="http://www.w3.org/2000/svg">
            <path d="M7.17079 3.99351C7.94594 1.99784 8.33352 1 9 1C9.66648 1 10.0541 1.99784 10.8292 3.99351L10.8653 4.08644C11.3032 5.2139 11.5222 5.77762 11.9684 6.12027C12.4147 6.46291 13.0005 6.51709 14.1721 6.62545L14.3839 6.64504C16.3014 6.82238 17.2601 6.91105 17.4653 7.54098C17.6704 8.17091 16.9584 8.83988 15.5344 10.1778L15.0592 10.6243C14.3383 11.3016 13.9779 11.6403 13.8099 12.0841C13.7786 12.1669 13.7525 12.2517 13.7319 12.338C13.6215 12.8007 13.727 13.292 13.9381 14.2745L14.0038 14.5804C14.3918 16.3861 14.5857 17.2889 14.2471 17.6784C14.1205 17.8239 13.956 17.9287 13.7733 17.9802C13.2843 18.1179 12.5901 17.5337 11.2017 16.3654C10.29 15.5981 9.83412 15.2145 9.31075 15.1282C9.10489 15.0943 8.89511 15.0943 8.68925 15.1282C8.16588 15.2145 7.71003 15.5981 6.79832 16.3654C5.40988 17.5337 4.71566 18.1179 4.22669 17.9802C4.04397 17.9287 3.87949 17.8239 3.75294 17.6784C3.41426 17.2889 3.60823 16.3861 3.99617 14.5804L4.06188 14.2745C4.27297 13.292 4.37851 12.8007 4.26809 12.338C4.24749 12.2517 4.22144 12.1669 4.1901 12.0841C4.02211 11.6403 3.66168 11.3016 2.94083 10.6243L2.46557 10.1778C1.04156 8.83988 0.32956 8.17091 0.534708 7.54098C0.739856 6.91105 1.6986 6.82238 3.61608 6.64504L3.82789 6.62545C4.9995 6.51709 5.5853 6.46291 6.03156 6.12027C6.47781 5.77762 6.69677 5.2139 7.1347 4.08644L7.17079 3.99351Z" stroke="#FFB800"></path>
         </svg>