<svg width="16" height="13" viewBox="0 0 16 13" fill="none" xmlns="http://www.w3.org/2000/svg">
                                    <path d="M7.5208 3.5984L7.55437 4.13473L6.99479 4.06906C4.95791 3.81731 3.17843 2.96355 1.66756 1.52968L0.928908 0.818213L0.73865 1.3436C0.33575 2.51478 0.593158 3.75163 1.43253 4.5835C1.8802 5.04321 1.77947 5.10889 1.00725 4.83525C0.73865 4.74768 0.503625 4.68201 0.481242 4.71485C0.4029 4.79147 0.6715 5.78752 0.884142 6.18156C1.17513 6.72884 1.76828 7.26517 2.4174 7.58259L2.96579 7.83434L2.31667 7.84529C1.68994 7.84529 1.66756 7.85623 1.73471 8.08609C1.95854 8.79756 2.84268 9.5528 3.82755 9.88117L4.52143 10.111L3.91708 10.4613C3.02175 10.9648 1.96973 11.2494 0.917717 11.2713C0.414092 11.2822 0 11.326 0 11.3588C0 11.4683 1.36538 12.0812 2.15999 12.322C4.54382 13.0335 7.37531 12.727 9.50173 11.5121C11.0126 10.6474 12.5235 8.9289 13.2285 7.26517C13.6091 6.37858 13.9896 4.75863 13.9896 3.98149C13.9896 3.47799 14.0232 3.41232 14.6499 2.81031C15.0192 2.46005 15.3662 2.07696 15.4333 1.9675C15.5452 1.75953 15.534 1.75953 14.9633 1.94561C14.012 2.27398 13.8777 2.2302 14.3477 1.73764C14.6947 1.38738 15.1087 0.752539 15.1087 0.566464C15.1087 0.533627 14.9409 0.588355 14.7506 0.686866C14.5492 0.796322 14.1015 0.960506 13.7657 1.05902L13.1614 1.24509L12.613 0.883887C12.3108 0.686866 11.8855 0.467954 11.6617 0.40228C11.0909 0.249042 10.218 0.270933 9.70317 0.446063C8.30422 0.938615 7.42007 2.2083 7.5208 3.5984Z" fill="#FFFFFF"></path>
                                </svg>