<svg width="18" height="13" viewBox="0 0 18 13" fill="none" xmlns="http://www.w3.org/2000/svg">
                                    <path d="M17.1788 2.67203C16.9825 1.94159 16.4042 1.36639 15.6698 1.17118C14.339 0.816406 9.00208 0.816406 9.00208 0.816406C9.00208 0.816406 3.66516 0.816406 2.33425 1.17118C1.5999 1.36639 1.02157 1.94159 0.825308 2.67203C0.46875 3.99587 0.46875 6.75807 0.46875 6.75807C0.46875 6.75807 0.46875 9.52018 0.825308 10.8441C1.02157 11.5746 1.5999 12.1497 2.33425 12.3451C3.66516 12.6997 9.00208 12.6997 9.00208 12.6997C9.00208 12.6997 14.339 12.6997 15.6698 12.3451C16.4042 12.1497 16.9825 11.5746 17.1788 10.8441C17.5354 9.52018 17.5354 6.75807 17.5354 6.75807C17.5354 6.75807 17.5354 3.99587 17.1788 2.67203Z" fill="#FFFFFF"></path>
                                    <path d="M7.40625 9.60026V4.43359L11.6729 7.01703L7.40625 9.60026Z" class="imp-clr-icon" fill="#141416"></path>
                                </svg>